<svg width="16" height="18" viewBox="0 0 16 18" fill="none" xmlns="http://www.w3.org/2000/svg">
<path d="M2.23721 17.4536H7.21874V11.4902H5.42897V9.52431H7.21874V7.06689C7.21874 5.71186 8.22234 4.60948 9.45595 4.60948H11.6932V6.57541H9.90339C9.40993 6.57541 9.00851 7.01634 9.00851 7.55838V9.52431H11.6124L11.3141 11.4902H9.00851V17.4536H13.0355C14.2691 17.4536 15.2727 16.3512 15.2727 14.9962V3.13503C15.2727 1.77999 14.2691 0.677612 13.0355 0.677612H2.23721C1.0036 0.677612 0 1.77999 0 3.13503V14.9962C0 16.3512 1.0036 17.4536 2.23721 17.4536ZM0.894885 3.13503C0.894885 2.32203 1.49707 1.66058 2.23721 1.66058H13.0355C13.7756 1.66058 14.3778 2.32203 14.3778 3.13503V14.9962C14.3778 15.8092 13.7756 16.4706 13.0355 16.4706H9.90339V12.4732H12.0722L12.6688 8.54134H9.90339V7.55838H12.588V3.62651H9.45595C7.72887 3.62651 6.32385 5.16982 6.32385 7.06689V8.54134H4.53408V12.4732H6.32385V16.4706H2.23721C1.49707 16.4706 0.894885 15.8092 0.894885 14.9962V3.13503Z" fill="white"/>
</svg>
